HIERARCHY
ROOT Hips
{
	OFFSET 0.000000 88.474243 0.000000
	CHANNELS 6 Xposition Yposition Zposition Zrotation Yrotation Xrotation 
	JOINT Hips_Spine
	{
		OFFSET 0.000000 0.000000 0.000000
		CHANNELS 3 Zrotation Yrotation Xrotation
		JOINT Spine
		{
			OFFSET 0.005100 8.711998 -0.691000
			CHANNELS 3 Zrotation Yrotation Xrotation
			JOINT Spine1
			{
				OFFSET -0.009200 8.660301 -1.275000
				CHANNELS 3 Zrotation Yrotation Xrotation
				JOINT Spine2
				{
					OFFSET 0.006300 9.852501 -1.857000
					CHANNELS 3 Zrotation Yrotation Xrotation
					JOINT Spine2_Neck
					{
						OFFSET 0.000000 0.000000 0.000000
						CHANNELS 3 Zrotation Yrotation Xrotation
						JOINT Neck
						{
							OFFSET 0.016300 11.420799 -0.263300
							CHANNELS 3 Zrotation Yrotation Xrotation
							End Site #name: Head
							{
								OFFSET -0.019200 9.262405 2.362500
							}
						}
					}
					JOINT Spine2_LeftShoulder
					{
						OFFSET 0.000000 0.000000 0.000000
						CHANNELS 3 Zrotation Yrotation Xrotation
						JOINT LeftShoulder
						{
							OFFSET 5.616900 6.732201 -0.345700
							CHANNELS 3 Zrotation Yrotation Xrotation
							JOINT LeftArm
							{
								OFFSET 10.664888 -0.183372 -2.440700
								CHANNELS 3 Zrotation Yrotation Xrotation
								JOINT LeftForeArm
								{
									OFFSET 27.459126 0.000000 0.000000
									CHANNELS 3 Zrotation Yrotation Xrotation
									End Site #name: LeftHand
									{
										OFFSET 21.306858 0.000000 0.000000
									}
								}
							}
						}
					}
					JOINT Spine2_RightShoulder
					{
						OFFSET 0.000000 0.000000 0.000000
						CHANNELS 3 Zrotation Yrotation Xrotation
						JOINT RightShoulder
						{
							OFFSET -5.580300 6.737503 -0.344400
							CHANNELS 3 Zrotation Yrotation Xrotation
							JOINT RightArm
							{
								OFFSET -10.679335 -0.188484 -2.383900
								CHANNELS 3 Zrotation Yrotation Xrotation
								JOINT RightForeArm
								{
									OFFSET -27.503529 0.000000 0.000000
									CHANNELS 3 Zrotation Yrotation Xrotation
									End Site #name: RightHand
									{
										OFFSET -21.306808 0.000000 0.000000
									}
								}
							}
						}
					}
				}
			}
		}
	}
	JOINT Hips_LeftUpLeg
	{
		OFFSET 0.000000 0.000000 0.000000
		CHANNELS 3 Zrotation Yrotation Xrotation
		JOINT LeftUpLeg
		{
			OFFSET 6.857700 -6.739601 0.312100
			CHANNELS 3 Zrotation Yrotation Xrotation
			JOINT LeftLeg
			{
				OFFSET -0.367590 -34.731552 -4.572400
				CHANNELS 3 Zrotation Yrotation Xrotation
				End Site #name: LeftFoot
				{
					OFFSET 0.367590 -34.656704 -6.067400
				}
			}
		}
	}
	JOINT Hips_RightUpLeg
	{
		OFFSET 0.000000 0.000000 0.000000
		CHANNELS 3 Zrotation Yrotation Xrotation
		JOINT RightUpLeg
		{
			OFFSET -6.876100 -6.733299 0.301000
			CHANNELS 3 Zrotation Yrotation Xrotation
			JOINT RightLeg
			{
				OFFSET 0.347353 -34.795158 -4.515900
				CHANNELS 3 Zrotation Yrotation Xrotation
				End Site #name: RightFoot
				{
					OFFSET -0.347353 -34.589367 -6.070300
				}
			}
		}
	}
}
MOTION
Frames: 6
Frame Time: 0.041667
0.000000 -0.000000 0.000000 -3.677508 -0.111577 -6.158341 0.000000 0.000000 0.000000 -1.336846 -1.439788 1.238605 2.087671 -0.196855 0.018378 0.000000 0.000000 0.000000 2.087920 -0.193931 0.024464 -1.060000 0.180051 -8.767630 2.087920 -0.193931 0.024464 -7.856324 -5.278008 1.356193 -7.511308 -12.646393 -14.653982 -0.000001 -13.717222 -0.000004 2.087920 -0.193931 0.024464 8.035910 6.317085 1.528687 5.862571 6.582028 4.675085 -0.000002 25.848234 -0.000002 0.000000 0.000000 0.000000 4.074633 11.205818 -17.998639 3.963321 9.968846 32.720381 0.000000 0.000000 0.000000 1.971280 -12.998553 -13.246937 2.218405 6.915904 25.506761 
0.110681 -0.094872 0.000351 -0.958846 -1.224633 -6.483209 0.000000 0.000000 0.000000 -3.887993 -0.846326 1.455459 1.953915 -0.120865 -0.087606 0.000000 0.000000 0.000000 1.954283 -0.118328 -0.083498 -1.290133 0.325904 -8.356872 1.954283 -0.118328 -0.083498 -7.181286 -4.730614 1.220559 -7.574666 -12.320185 -14.431668 -0.000003 -13.069095 -0.000003 1.954283 -0.118328 -0.083498 7.877395 6.868880 1.599690 6.044910 7.587943 5.851115 0.000005 24.563739 -0.000002 0.000000 0.000000 0.000000 1.951399 10.895934 -16.569217 2.473365 10.960191 31.153974 0.000000 0.000000 0.000000 -1.077760 -14.406511 -14.175670 3.086862 8.920378 28.368138 
0.181092 -0.207932 0.023194 1.590277 -2.102531 -6.740759 0.000000 0.000000 0.000000 -6.151158 -0.311817 1.378150 1.787319 -0.050825 -0.178515 0.000000 0.000000 0.000000 1.787657 -0.049844 -0.176440 -1.482672 0.448275 -7.943677 1.787657 -0.049844 -0.176440 -6.788383 -4.235624 1.116213 -7.266211 -11.998129 -14.199784 0.000001 -12.569658 -0.000000 1.787657 -0.049844 -0.176440 7.768984 7.350230 1.661620 6.274788 8.275601 6.863851 0.000000 23.660099 -0.000002 0.000000 0.000000 0.000000 -0.184543 10.356591 -15.283352 1.120994 11.508046 29.514331 0.000000 0.000000 0.000000 -3.976227 -15.629190 -15.169055 3.454966 9.853787 30.904505 
0.232301 -0.304329 0.055351 3.297229 -2.635997 -6.893809 0.000000 0.000000 0.000000 -7.525962 -0.041937 1.094265 1.649070 -0.013645 -0.212077 0.000000 0.000000 0.000000 1.649353 -0.014240 -0.210993 -1.693766 0.551294 -7.647469 1.649353 -0.014240 -0.210993 -6.872639 -3.903091 1.072594 -6.625262 -11.507186 -13.996974 -0.000008 -12.353158 0.000001 1.649353 -0.014240 -0.210993 7.602021 7.661551 1.691468 6.512500 8.715673 7.688207 0.000000 23.004651 -0.000004 0.000000 0.000000 0.000000 -1.596364 9.987600 -14.322570 0.262368 11.872278 28.285266 0.000000 0.000000 0.000000 -5.894462 -16.294862 -15.927141 3.400538 10.087960 32.585477 
0.297084 -0.333870 0.105255 3.597215 -2.626691 -6.910348 0.000000 0.000000 0.000000 -7.445643 -0.225423 0.754428 1.560763 -0.035805 -0.159392 0.000000 0.000000 0.000000 1.560961 -0.037108 -0.157700 -1.942929 0.634718 -7.545365 1.560961 -0.037108 -0.157700 -7.403969 -3.777362 1.092475 -5.847883 -10.867802 -13.807876 -0.000001 -12.403117 0.000004 1.560961 -0.037108 -0.157700 7.328306 7.681625 1.668304 6.680678 9.044136 8.332287 -0.000000 22.464753 -0.000003 0.000000 0.000000 0.000000 -1.643547 10.172872 -13.815613 -0.055715 12.100698 27.828177 0.000000 0.000000 0.000000 -6.201881 -16.222760 -16.026671 3.310639 10.216433 32.917754 
0.373240 -0.290581 0.170723 2.331622 -1.836660 -6.810782 0.000000 0.000000 0.000000 -5.764913 -0.923440 0.444401 1.507650 -0.127464 -0.032390 0.000000 0.000000 0.000000 1.507564 -0.128694 -0.028791 -2.167587 0.677689 -7.622763 1.507564 -0.128694 -0.028791 -8.050805 -3.914843 1.159113 -5.304469 -10.212944 -13.563279 0.000007 -12.615719 -0.000005 1.507564 -0.128694 -0.028791 7.001468 7.332952 1.586748 6.702132 9.285668 8.831709 -0.000002 22.025215 -0.000003 0.000000 0.000000 0.000000 -0.234773 10.942381 -13.912917 0.019647 11.748558 28.369443 0.000000 0.000000 0.000000 -4.813836 -15.513568 -15.260697 3.170061 10.091335 31.733057 
